<?xml version="1.0" encoding="UTF-8"?>
<svg width="30px" height="30px" viewBox="0 0 30 30" version="1.1" xmlns="http://www.w3.org/2000/svg" xmlns:xlink="http://www.w3.org/1999/xlink">
    <!-- Generator: Sketch 54 (76480) - https://sketchapp.com -->
    <title>形状结合</title>
    <desc>Created with Sketch.</desc>
    <g id="页面-1" stroke="none" stroke-width="1" fill="none" fill-rule="evenodd" opacity="0.900000036">
        <g id="集团官网备份-7" transform="translate(-501.000000, -1863.000000)" fill="#FFFFFF">
            <g id="编组-3" transform="translate(0.000000, 1838.000000)">
                <g id="编组-14" transform="translate(360.000000, 23.000000)">
                    <g id="编组-11">
                        <g id="编组-4" transform="translate(141.000000, 2.000000)">
                            <path d="M15,30 C6.71572875,30 0,23.2842712 0,15 C0,6.71572875 6.71572875,0 15,0 C23.2842712,0 30,6.71572875 30,15 C30,23.2842712 23.2842712,30 15,30 Z M16.7403863,19.2438217 L16.7403863,19.2410153 C16.3381112,19.4915037 15.1092623,18.3155018 13.6382967,16.1668238 C12.1867623,14.0416914 11.5632763,12.5122183 11.9307085,12.2839675 C11.9668595,12.2617536 12.3510116,12.0293169 12.459536,11.9597024 C13.9639412,11.0134022 14.2213745,9.97101638 13.0524363,7.77353444 C12.4999442,6.73542966 11.8444218,6.16481451 11.0734064,6.03257792 C10.3010829,5.90176834 9.64981766,6.16481451 8.6338078,6.8230245 L8.34431432,7.01089084 L8.07991249,7.17792277 C6.06898879,8.42070886 6.91787158,13.5420702 10.1980525,18.3447556 C13.4698616,23.1349071 18.0192996,25.937752 20.0038474,24.713089 C20.1290678,24.6365297 20.6203648,24.3498427 20.6760183,24.3163792 C21.5291584,23.8084813 22.0078976,23.3965263 22.2555796,22.7995351 C22.5895721,22.0006692 22.3335183,21.1044809 21.4693189,20.094084 C20.0720348,18.4602486 19.0143086,18.0747884 17.8175199,18.6203119 C17.6463021,18.6968712 17.4765588,18.7900552 17.26919,18.9152994 L16.7403863,19.2438217 Z" id="形状结合"></path>
                        </g>
                    </g>
                </g>
            </g>
        </g>
    </g>
</svg>