<?xml version="1.0" encoding="UTF-8"?>
<svg width="88px" height="88px" viewBox="0 0 88 88" version="1.1" xmlns="http://www.w3.org/2000/svg" xmlns:xlink="http://www.w3.org/1999/xlink">
    <!-- Generator: Sketch 54 (76480) - https://sketchapp.com -->
    <title>形状</title>
    <desc>Created with Sketch.</desc>
    <g id="页面-1" stroke="none" stroke-width="1" fill="none" fill-rule="evenodd">
        <g id="集团官网备份-7" transform="translate(-915.000000, -393.000000)" fill="#FFFFFF" fill-rule="nonzero">
            <g id="背景">
                <path d="M975.527749,396.31888 C970.215812,394.120886 964.521476,392.993016 958.771875,393.000065 C934.596668,393.000065 915,412.576264 915,436.726219 C915,460.876173 934.596668,480.452372 958.771875,480.452372 C982.947082,480.452372 1002.54375,460.876173 1002.54375,436.726219 C1002.54375,430.91064 1001.40568,425.248104 999.221465,419.987847 C998.741967,418.899363 997.479474,418.393363 996.379832,418.848938 C995.280189,419.304512 994.746737,420.55456 995.179132,421.662559 C997.158704,426.438122 998.173965,431.557421 998.166562,436.726219 C998.166562,458.460303 980.528685,476.079757 958.771875,476.079757 C937.015065,476.079757 919.377188,458.460303 919.377188,436.726219 C919.377188,414.992134 937.015065,397.372681 958.771875,397.372681 C964.015746,397.372681 969.11298,398.395873 973.851286,400.356991 C974.960444,400.788934 976.211798,400.256039 976.667849,399.157545 C977.1239,398.059052 976.617371,396.797877 975.527749,396.31888 Z M952.530798,414.859047 C950.040288,413.1209 947.2,414.564933 947.2,417.541455 L947.2,454.913836 C947.2,457.87709 950.057999,459.323334 952.530798,457.594033 L978.717681,439.270509 C980.975743,437.68937 980.96246,434.757076 978.717681,433.184782 L952.528585,414.861258 L952.530798,414.859047 Z M952.23125,453.309788 L952.23125,420.140414 L975.375,436.726202 L952.23125,453.311991 L952.23125,453.309788 Z" id="形状"></path>
            </g>
        </g>
    </g>
</svg>