<?xml version="1.0" encoding="UTF-8"?>
<svg width="30px" height="30px" viewBox="0 0 30 30" version="1.1" xmlns="http://www.w3.org/2000/svg" xmlns:xlink="http://www.w3.org/1999/xlink">
    <!-- Generator: Sketch 54 (76480) - https://sketchapp.com -->
    <title>形状结合@1x</title>
    <desc>Created with Sketch.</desc>
    <g id="页面-1" stroke="none" stroke-width="1" fill="none" fill-rule="evenodd" opacity="0.900000036">
        <g id="集团官网备份-7" transform="translate(-1060.000000, -1863.000000)" fill="#FFFFFF">
            <g id="编组-3" transform="translate(0.000000, 1838.000000)">
                <g id="编组-14" transform="translate(360.000000, 23.000000)">
                    <g id="编组-11">
                        <g id="编组-4" transform="translate(700.000000, 2.000000)">
                            <path d="M15,30 C23.2842712,30 30,23.2842712 30,15 C30,6.71572875 23.2842712,0 15,0 C6.71572875,0 0,6.71572875 0,15 C0,23.2842712 6.71572875,30 15,30 Z M21.1350497,18.2698574 C21.1350497,18.2698574 20.6442835,19.5458881 19.859019,20.6256123 C19.859019,20.6256123 21.2331647,21.1163786 21.1350497,22.3923326 C21.1350497,22.3923326 21.1350497,23.7664398 17.9940688,23.6683633 C17.9940688,23.6683633 15.8346971,23.4720184 15.147701,22.5886774 L14.6568964,22.5886774 C14.0680151,23.57021 11.8105285,23.6683633 11.8105285,23.6683633 C8.66954759,23.8646698 8.66954759,22.3923326 8.66954759,22.3923326 C8.47320273,21.1163786 9.94557829,20.6256123 9.94557829,20.6256123 C9.16035222,19.5458881 8.66954759,18.2698574 8.66954759,18.2698574 C6.90286562,21.4108383 7.00098054,17.7790527 7.00098054,17.7790527 C7.29540197,15.6196811 8.86589245,14.1474589 8.86589245,14.1474589 C8.66954759,12.2825086 9.454812,11.9880488 9.454812,11.9880488 C9.84750171,5.9026235 14.8532412,6.00070007 15.0496244,6.00070007 C15.2457776,6.00070007 20.3498237,5.80435522 20.5461685,11.9880488 C20.5461685,11.9880488 21.3313946,12.2825086 21.1350497,14.3438421 C21.1350497,14.3438421 22.7055402,15.7179493 23,17.9754359 C22.9017317,17.7790527 23.1961915,21.4108383 21.1350497,18.2698574" id="形状结合"></path>
                        </g>
                    </g>
                </g>
            </g>
        </g>
    </g>
</svg>