<?xml version="1.0" encoding="UTF-8"?>
<svg width="40px" height="25px" viewBox="0 0 40 25" version="1.1" xmlns="http://www.w3.org/2000/svg" xmlns:xlink="http://www.w3.org/1999/xlink">
    <!-- Generator: Sketch 54 (76480) - https://sketchapp.com -->
    <title>形状</title>
    <desc>Created with Sketch.</desc>
    <g id="页面-1" stroke="none" stroke-width="1" fill="none" fill-rule="evenodd" opacity="0.673107329">
        <g id="集团官网备份-7" transform="translate(-944.000000, -902.000000)" fill="#8292A5" fill-rule="nonzero">
            <path d="M963.970149,926.905553 C963.73488,926.905553 963.498743,926.857677 963.279783,926.760645 L945.021077,918.705307 C944.156109,918.324171 943.76474,917.312971 944.145876,916.447957 C944.527012,915.584132 945.539354,915.191666 946.403225,915.572756 L963.970149,923.322291 L981.538261,915.571706 C982.403229,915.19057 983.4142,915.583035 983.795336,916.446907 C984.176472,917.311874 983.785149,918.322892 982.920135,918.704028 L964.661703,926.759503 C964.441373,926.85658 964.205236,926.905553 963.970149,926.905553 L963.970149,926.905553 Z M963.970149,913.479775 C963.73488,913.479775 963.498743,913.431899 963.279783,913.335005 L945.021077,905.279484 C944.156109,904.898348 943.76474,903.887376 944.145876,903.022363 C944.527012,902.157395 945.539354,901.765797 946.403225,902.146933 L963.970149,909.89665 L981.538261,902.145883 C982.403229,901.764747 983.4142,902.15607 983.795336,903.021083 C984.176472,903.88628 983.785149,904.897297 982.920135,905.278387 L964.661703,913.333726 C964.441373,913.431899 964.205236,913.479775 963.970149,913.479775 L963.970149,913.479775 Z" id="形状"></path>
        </g>
    </g>
</svg>