<?xml version="1.0" encoding="UTF-8"?>
<svg width="30px" height="30px" viewBox="0 0 30 30" version="1.1" xmlns="http://www.w3.org/2000/svg" xmlns:xlink="http://www.w3.org/1999/xlink">
    <!-- Generator: Sketch 54 (76480) - https://sketchapp.com -->
    <title>形状结合@1x</title>
    <desc>Created with Sketch.</desc>
    <g id="页面-1" stroke="none" stroke-width="1" fill="none" fill-rule="evenodd" opacity="0.900000036">
        <g id="集团官网备份-7" transform="translate(-625.000000, -1863.000000)" fill="#FFFFFF">
            <g id="编组-3" transform="translate(0.000000, 1838.000000)">
                <g id="编组-14" transform="translate(360.000000, 23.000000)">
                    <g id="编组-11">
                        <g id="编组-4" transform="translate(141.000000, 2.000000)">
                            <path d="M139,30 C130.715729,30 124,23.2842712 124,15 C124,6.71572875 130.715729,0 139,0 C147.284271,0 154,6.71572875 154,15 C154,23.2842712 147.284271,30 139,30 Z M144.227485,22.8811004 L146.95543,9.4141126 C147.165139,8.32797008 146.616419,7.74098985 145.696353,8.11071612 C144.776246,8.48048482 130.192685,14.3392993 129.539295,14.6271046 C128.885822,14.9149523 128.757505,15.6028595 129.539295,15.9303313 L133.472178,17.1518493 C133.639716,17.2039037 133.820778,17.1783219 133.968768,17.0817646 L144.017816,11.15172 L136.30549,18.084671 C136.138484,18.23481 136.037789,18.4490094 136.026765,18.6777179 L135.852096,22.2959869 C135.841563,22.5142166 136.059469,22.6667313 136.250409,22.5737376 C136.421717,22.4902894 136.547617,22.35992 136.673475,22.2295507 L138.40865,20.6131914 C138.619753,20.4164707 138.935813,20.4019193 139.163023,20.5783188 L142.968531,23.5326926 C143.598028,23.9672854 144.017816,23.749989 144.227485,22.8811004 Z" id="形状结合"></path>
                        </g>
                    </g>
                </g>
            </g>
        </g>
    </g>
</svg>