<?xml version="1.0" encoding="UTF-8"?>
<svg width="40px" height="40px" viewBox="0 0 40 40" version="1.1" xmlns="http://www.w3.org/2000/svg" xmlns:xlink="http://www.w3.org/1999/xlink">
    <!-- Generator: Sketch 54 (76480) - https://sketchapp.com -->
    <title>形状</title>
    <desc>Created with Sketch.</desc>
    <g id="页面-1" stroke="none" stroke-width="1" fill="none" fill-rule="evenodd">
        <g id="集团官网备份-7" transform="translate(-789.000000, -761.000000)" fill="#FFFFFF" fill-rule="nonzero">
            <g id="_DSC1463备份" transform="translate(675.000000, 725.000000)">
                <g id="ziyuan" transform="translate(114.000000, 36.000000)">
                    <path d="M20,0 C8.954305,-6.76353751e-16 1.3527075e-15,8.954305 0,20 C-1.3527075e-15,31.045695 8.954305,40 20,40 C31.045695,40 40,31.045695 40,20 C39.9873135,8.95956421 31.0404358,0.0126865335 20,0 Z M28.7482014,20.9208633 L17.2374101,29.5539568 C17.0381627,29.7033924 16.7958218,29.7841727 16.5467626,29.7841727 C15.9110391,29.7841727 15.3956834,29.268817 15.3956834,28.6330935 L15.3956834,11.3669065 C15.3956834,10.9309099 15.6420171,10.5323336 16.0319843,10.33735 C16.4219516,10.1423664 16.8886128,10.1844452 17.2374101,10.4460432 L28.7482014,19.0791367 C29.0380499,19.296523 29.2086331,19.6376894 29.2086331,20 C29.2086331,20.3623106 29.0380499,20.703477 28.7482014,20.9208633 L28.7482014,20.9208633 Z" id="形状"></path>
                </g>
            </g>
        </g>
    </g>
</svg>