<?xml version="1.0" encoding="UTF-8"?>
<svg width="32px" height="32px" viewBox="0 0 32 32" version="1.1" xmlns="http://www.w3.org/2000/svg" xmlns:xlink="http://www.w3.org/1999/xlink">
    <!-- Generator: Sketch 59.1 (86144) - https://sketch.com -->
    <title>voice_off</title>
    <desc>Created with Sketch.</desc>
    <g id="页面-1" stroke="none" stroke-width="1" fill="none" fill-rule="evenodd">
        <g id="画板" transform="translate(-194.000000, -111.000000)">
            <g id="voice_off" transform="translate(194.000000, 111.000000)">
                <rect id="矩形" fill="#D8D8D8" opacity="0" x="0" y="0" width="32" height="32"></rect>
                <path d="M5.48467912,9.80497712 C5.4707113,9.80432982 5.45742487,9.80432982 5.44349114,9.80432982 L1.36087277,9.80432982 C0.603375,9.80432982 0,10.4116567 0,11.161898 L0,20.6945826 C0,21.4447899 0.609336881,22.0521508 1.36087277,22.0521508 L5.44345705,22.0521508 C5.44611435,22.0521508 5.44744299,22.0521508 5.4500662,22.0521508 L5.4500662,22.0573973 L15.4472654,28.5308265 C15.6844795,28.7341772 15.9934405,28.8564807 16.3303712,28.8564807 C17.081873,28.8564807 17.6911758,28.2471779 17.6911758,27.4955738 C17.6911758,27.4331275 17.6871899,27.3720099 17.6791839,27.3121527 L17.679184,4.54429388 C17.6871559,4.48450488 17.6911758,4.42335315 17.6911758,4.36087277 C17.6911758,3.60933685 17.081839,3 16.3303712,3 C16.0206948,3 15.7349681,3.10366836 15.506373,3.27775485 L5.48467912,9.80497712 Z M26.5879847,15.9282233 L29.6492501,12.866992 C30.0319679,12.4835588 30.0346592,11.8496249 29.6446168,11.4595826 C29.2519171,11.0668829 28.6246606,11.0682115 28.2372415,11.4549153 L25.175942,14.5162147 L22.1147448,11.4549153 C21.7272575,11.0681775 21.100035,11.0668829 20.7073013,11.4595826 C20.3172589,11.8496249 20.3199844,12.4835587 20.7026681,12.866992 L23.7639334,15.9282233 L20.7026681,18.9895227 C20.3199843,19.3728878 20.3172589,20.0068216 20.7073013,20.396864 C21.100035,20.7895977 21.7272575,20.7882691 22.1147448,20.4015313 L25.175942,17.3403 L28.2372415,20.4015313 C28.6246266,20.7883031 29.2518831,20.7896318 29.6446168,20.396864 C30.0346592,20.0068557 30.0319678,19.3728878 29.6492501,18.9895227 L26.5879847,15.9282233 Z" fill="#FFFFFF" fill-rule="nonzero"></path>
            </g>
        </g>
    </g>
</svg>