<?xml version="1.0" encoding="UTF-8"?>
<svg width="18px" height="26px" viewBox="0 0 18 26" version="1.1" xmlns="http://www.w3.org/2000/svg" xmlns:xlink="http://www.w3.org/1999/xlink">
    <!-- Generator: Sketch 54 (76480) - https://sketchapp.com -->
    <title>voice_on</title>
    <desc>Created with Sketch.</desc>
    <g id="页面-1" stroke="none" stroke-width="1" fill="none" fill-rule="evenodd">
        <g id="集团官网备份-7复制" transform="translate(-1766.000000, -152.000000)" fill="#FFFFFF" fill-rule="nonzero">
            <g id="jingyin" transform="translate(1762.000000, 152.000000)">
                <path d="M9.48467912,6.80497712 C9.4707113,6.80432982 9.45742487,6.80432982 9.44349114,6.80432982 L5.36087277,6.80432982 C4.603375,6.80432982 4,7.4116567 4,8.16189804 L4,17.6945826 C4,18.4447899 4.60933688,19.0521508 5.36087277,19.0521508 L9.44345705,19.0521508 C9.44611435,19.0521508 9.44744299,19.0521508 9.4500662,19.0521508 L9.4500662,19.0573973 L19.4472654,25.5308265 C19.6844795,25.7341772 19.9934405,25.8564807 20.3303712,25.8564807 C21.081873,25.8564807 21.6911758,25.2471779 21.6911758,24.4955738 C21.6911758,24.4331275 21.6871899,24.3720099 21.6791839,24.3121527 L21.679184,1.54429388 C21.6871559,1.48450488 21.6911758,1.42335315 21.6911758,1.36087277 C21.6911758,0.609336847 21.081839,-1.29674049e-13 20.3303712,-1.29674049e-13 C20.0206948,-1.29674049e-13 19.7349681,0.103668357 19.506373,0.27775485 L9.48467912,6.80497712 Z" id="voice_on"></path>
            </g>
        </g>
    </g>
</svg>