<?xml version="1.0" encoding="UTF-8"?>
<svg width="32px" height="32px" viewBox="0 0 32 32" version="1.1" xmlns="http://www.w3.org/2000/svg" xmlns:xlink="http://www.w3.org/1999/xlink">
    <!-- Generator: Sketch 59.1 (86144) - https://sketch.com -->
    <title>voice_on</title>
    <desc>Created with Sketch.</desc>
    <g id="页面-1" stroke="none" stroke-width="1" fill="none" fill-rule="evenodd">
        <g id="画板" transform="translate(-194.000000, -146.000000)" fill="#FFFFFF" fill-rule="nonzero">
            <g id="voice_on" transform="translate(194.000000, 146.000000)">
                <path d="M5.48467912,9.80497712 C5.4707113,9.80432982 5.45742487,9.80432982 5.44349114,9.80432982 L1.36087277,9.80432982 C0.603375,9.80432982 0,10.4116567 0,11.161898 L0,20.6945826 C0,21.4447899 0.60933688,22.0521508 1.36087277,22.0521508 L5.44345705,22.0521508 C5.44611435,22.0521508 5.44744299,22.0521508 5.4500662,22.0521508 L5.4500662,22.0573973 L15.4472654,28.5308265 C15.6844795,28.7341772 15.9934405,28.8564807 16.3303712,28.8564807 C17.081873,28.8564807 17.6911758,28.2471779 17.6911758,27.4955738 C17.6911758,27.4331275 17.6871899,27.3720099 17.6791839,27.3121527 L17.679184,4.54429388 C17.6871559,4.48450488 17.6911758,4.42335315 17.6911758,4.36087277 C17.6911758,3.60933685 17.081839,3 16.3303712,3 C16.0206948,3 15.7349681,3.10366836 15.506373,3.27775485 L5.48467912,9.80497712 Z"></path>
                <path d="M27.7514266,26.5159553 C33.4161911,20.7081353 33.4161911,11.2917683 27.7514266,5.48397582 C27.1219665,4.83867473 26.1015283,4.83867473 25.4720951,5.48397582 C24.842635,6.12933199 24.842635,7.17553992 25.4720951,7.82086855 C29.8780201,12.3380588 29.8780201,19.6618999 25.4720951,24.1790901 C24.842635,24.8244463 24.842635,25.8706542 25.4720951,26.5159829 C26.1015014,27.161339 27.1219934,27.161339 27.7514266,26.5159829 L27.7514266,26.5159553 Z" id="路径"></path>
                <path d="M23.6912633,22.5027165 C26.7695789,19.1875027 26.7695789,13.8125256 23.6912633,10.4973118 C23.0755581,9.8342294 22.0774184,9.8342294 21.4617395,10.4973118 C20.8460868,11.1603376 20.8460868,12.2353386 21.4617395,12.8983927 C23.3087499,14.8875267 23.3087499,18.1125299 21.4617395,20.1016073 C20.8460868,20.7646897 20.8460868,21.8396341 21.4617395,22.5026882 C22.0774446,23.1657706 23.0755844,23.1657706 23.6912633,22.5026882 L23.6912633,22.5027165 Z" id="路径"></path>
            </g>
        </g>
    </g>
</svg>