<?xml version="1.0" encoding="UTF-8"?>
<svg width="30px" height="26px" viewBox="0 0 30 26" version="1.1" xmlns="http://www.w3.org/2000/svg" xmlns:xlink="http://www.w3.org/1999/xlink">
    <!-- Generator: Sketch 54 (76480) - https://sketchapp.com -->
    <title>voice_off</title>
    <desc>Created with Sketch.</desc>
    <g id="页面-1" stroke="none" stroke-width="1" fill="none" fill-rule="evenodd">
        <g id="集团官网备份-7" transform="translate(-1762.000000, -152.000000)" fill="#FFFFFF" fill-rule="nonzero">
            <g id="jingyin" transform="translate(1762.000000, 152.000000)">
                <path d="M5.48467912,6.80497712 C5.4707113,6.80432982 5.45742487,6.80432982 5.44349114,6.80432982 L1.36087277,6.80432982 C0.603375,6.80432982 0,7.4116567 0,8.16189804 L0,17.6945826 C0,18.4447899 0.609336881,19.0521508 1.36087277,19.0521508 L5.44345705,19.0521508 C5.44611435,19.0521508 5.44744299,19.0521508 5.4500662,19.0521508 L5.4500662,19.0573973 L15.4472654,25.5308265 C15.6844795,25.7341772 15.9934405,25.8564807 16.3303712,25.8564807 C17.081873,25.8564807 17.6911758,25.2471779 17.6911758,24.4955738 C17.6911758,24.4331275 17.6871899,24.3720099 17.6791839,24.3121527 L17.679184,1.54429388 C17.6871559,1.48450488 17.6911758,1.42335315 17.6911758,1.36087277 C17.6911758,0.609336847 17.081839,0 16.3303712,0 C16.0206948,0 15.7349681,0.103668357 15.506373,0.27775485 L5.48467912,6.80497712 Z M26.5879847,12.9282233 L29.6492501,9.86699198 C30.0319679,9.48355877 30.0346592,8.84962493 29.6446168,8.45958255 C29.2519171,8.06688288 28.6246606,8.06821153 28.2372415,8.45491526 L25.175942,11.5162147 L22.1147448,8.45491526 C21.7272575,8.06817747 21.100035,8.06688288 20.7073013,8.45958255 C20.3172589,8.84962493 20.3199844,9.48355874 20.7026681,9.86699198 L23.7639334,12.9282233 L20.7026681,15.9895227 C20.3199843,16.3728878 20.3172589,17.0068216 20.7073013,17.396864 C21.100035,17.7895977 21.7272575,17.7882691 22.1147448,17.4015313 L25.175942,14.3403 L28.2372415,17.4015313 C28.6246266,17.7883031 29.2518831,17.7896318 29.6446168,17.396864 C30.0346592,17.0068557 30.0319678,16.3728878 29.6492501,15.9895227 L26.5879847,12.9282233 Z" id="voice_off"></path>
            </g>
        </g>
    </g>
</svg>