<?xml version="1.0" encoding="UTF-8"?>
<svg width="103px" height="41px" viewBox="0 0 103 41" version="1.1" xmlns="http://www.w3.org/2000/svg" xmlns:xlink="http://www.w3.org/1999/xlink">
    <!-- Generator: Sketch 54 (76480) - https://sketchapp.com -->
    <title>形状结合</title>
    <desc>Created with Sketch.</desc>
    <defs>
        <linearGradient x1="50%" y1="98.1814823%" x2="50%" y2="0%" id="linearGradient-1">
            <stop stop-color="#B1987F" offset="0%"></stop>
            <stop stop-color="#D2B79C" offset="47.4712519%"></stop>
            <stop stop-color="#B1987F" offset="100%"></stop>
        </linearGradient>
    </defs>
    <g id="页面-1" stroke="none" stroke-width="1" fill="none" fill-rule="evenodd">
        <g id="集团官网备份-7" transform="translate(-369.000000, -9.000000)" fill="url(#linearGradient-1)">
            <path d="M418,15.0306577 C419.236806,16.1849877 421.357581,14.9000292 422.041005,16.5538801 L424.654371,22.87437 L427.880657,16.5168909 C427.912619,16.4585746 427.953355,16.4039239 427.991584,16.3566043 C428.193384,16.1053443 428.40145,15.938393 428.729531,15.8177615 C429.899279,15.3872204 431.019517,15.9587204 432,15 L424.47764,29.8236764 C423.988495,30.6907569 422.872331,30.5721248 421.952326,30.5607948 C421.07525,30.549798 420.830521,30.8180531 420.530955,31 L422.602847,26.9381847 L424.281481,23.6224851 C424.072161,23.4615321 423.781682,23.3355688 423.414746,23.2802516 C422.441157,23.1329612 421.469135,23.1139668 420.888804,22.0169534 L418,15.0306577 Z M465.5,17.8148895 C463.465055,17.8148895 461.814761,19.4650559 461.814761,21.4998297 C461.814761,23.5352847 463.465055,25.1854511 465.5,25.1854511 C467.534945,25.1854511 469.185567,23.5352847 469.185567,21.4998297 C469.185567,19.4650559 467.534945,17.8148895 465.5,17.8148895 Z M465.5,15 C469.089322,15 472,17.9109562 472,21.4998297 C472,25.0893845 469.089322,28 465.5,28 C461.910678,28 459,25.0893845 459,21.4998297 C459,17.9109562 461.910678,15 465.5,15 Z M436.490161,15 C439.436299,15 441.924265,16.9676633 442.716308,19.6619585 C442.948181,20.4509316 443,21.1840361 443,21.9753937 L443,27.8436362 L440.197512,27.8436362 L440.197512,26.8345955 L440.197512,22.5422552 C440.197512,21.9699431 440.212927,21.334268 440.094858,20.7571867 C439.751476,19.078064 438.268076,17.8148895 436.490161,17.8148895 C434.458399,17.8148895 432.810359,19.4650559 432.810359,21.4998297 C432.810359,23.5349441 434.458399,25.1851105 436.490161,25.1851105 C436.650865,25.1851105 436.809602,25.1748906 436.964731,25.1547915 C436.975554,25.1534289 436.986705,25.1520662 436.997856,25.1503629 C437.015566,25.1479783 437.032948,25.1455937 437.050658,25.1428684 L437.051314,25.1425277 C437.322216,25.100967 437.583607,25.0297686 437.831551,24.9323393 C438.551113,24.6683263 439.120793,24.2636199 439.468111,23.9747386 L439.468111,23.9890464 C439.346435,24.1893556 439.184747,24.4373575 439.06799,24.7098871 C438.938443,25.0140982 438.888264,25.3751998 438.896463,25.604806 C438.917125,26.1777993 438.935819,26.5865936 438.563575,27.0839601 C437.915838,27.949582 436.700061,27.9976154 436.514103,28 L436.513775,28 L436.490161,28 C432.906453,28 430,25.0893845 430,21.4998297 C430,17.9106155 432.906453,15 436.490161,15 Z M451.403593,15.5217023 C455.045771,15.5217023 458,18.3886175 458,21.9231213 C458,25.4579511 455.045771,28.3242144 451.403593,28.3242144 C449.387682,28.3242144 447.583273,27.4467004 446.373856,26.0632793 C445.729309,25.3272367 444.788723,24.3750754 445.262903,23.3176254 C445.433919,22.9359133 445.503879,22.5532233 445.506471,22.1910695 C445.51392,21.10526 444.941925,20.0308595 444.941925,20.0308595 L446.477502,21.8315235 C447.244157,22.7302256 447.850485,23.6308835 448.644347,24.4480929 C448.860384,24.6700792 449.104599,24.8663137 449.371487,25.0309291 L449.372135,25.031581 L449.372135,25.0312551 C449.959029,25.3934089 450.656047,25.6036602 451.403593,25.6036602 C453.497886,25.6036602 455.196057,23.9555507 455.196057,21.9231213 C455.196057,19.890692 453.497886,18.2429084 451.403593,18.2429084 C449.62963,18.2429084 448.16952,19.3036182 447.802873,20.7307193 L446.519284,19.2257111 L446.085915,18.7178482 L444.938038,17.3715879 L444.938038,12.2072289 C444.938038,10.7067843 445.594893,10.5969321 446.62876,10.1184066 C447.360435,9.78004867 447.624732,9 447.624732,9 L447.624732,16.6762917 C448.695198,15.9487244 449.997897,15.5217023 451.403593,15.5217023 Z M388.972869,25.5271548 L390.901005,24.5492417 L391.132265,22.9180827 L389.599603,21.9095283 L387.901755,22.2384331 L387.633247,24.4227649 L387.634543,24.422113 L388.972869,25.5271548 Z M392.437554,22.4913866 L392.252611,20.6770319 C392.009367,20.506875 391.457454,20.1267928 391.131941,19.9387075 L389.604461,20.3060769 L389.633287,21.7315482 L391.29907,22.8274627 L392.437554,22.4913866 Z M388.863717,26.8665697 L390.298564,27.5957669 L391.778108,26.6856558 L392.045643,25.4371868 L390.976148,24.6991884 L389.013356,25.6950299 L388.863717,26.8665697 Z M386.831612,21.3116975 L385.453447,22.3385062 L385.453447,23.9312006 L386.498326,25.1617413 L387.450248,24.5414184 L387.736245,22.2211566 L386.831612,21.3116975 Z M387.81981,19.9924927 L387.801996,19.9999901 L387.564582,19.2926329 C386.4912,19.7734402 385.634179,20.6542139 385.179109,21.7468688 L385.436928,22.1425976 L386.712743,21.1917401 L386.70497,21.1829389 L387.81981,19.9924927 Z M387.954873,19.9321881 L387.954549,19.9325141 L389.586647,20.1372239 L390.893232,19.8229878 L390.834931,19.1097632 C390.39476,18.9695956 389.925763,18.8933184 389.439599,18.8933184 C388.830033,18.8933184 388.247025,19.0122979 387.714545,19.2290686 L387.954873,19.9321881 Z M393.244372,24.0022623 L393.251174,23.9530407 L394.020096,24.1280871 C394.044388,23.9354383 394.05702,23.7395297 394.05702,23.5403614 C394.05702,22.3828383 393.635635,21.3247363 392.94056,20.5101347 L392.426218,20.7389664 L392.600148,22.4437948 L392.604359,22.4431429 L393.244372,24.0022623 Z M393.996452,24.2936804 L393.278705,24.1264573 L393.262834,24.2454367 L393.212306,24.2389173 L393.221052,24.175027 L392.224756,25.3977443 L391.938435,26.7312917 L392.523062,26.9467586 L392.560957,26.964361 C393.306235,26.2752583 393.826084,25.3436331 393.996452,24.2936804 Z M386.880844,27.4080076 L387.120525,26.93046 L386.506423,25.4306674 L385.411665,24.1398221 L384.923881,24.512407 C385.178785,25.716218 385.896209,26.7466124 386.880844,27.4080076 Z M387.034045,27.4722239 L386.89218,27.4155049 C387.622235,27.9031576 388.498042,28.1874043 389.439599,28.1874043 C389.628753,28.1874043 389.814668,28.1756694 389.998315,28.1528514 L390.166416,27.7160502 L388.7225,26.9826154 L387.245547,27.0461798 L387.034045,27.4722239 Z M389.439599,18.7000176 C392.095847,18.7000176 394.249088,20.867399 394.249088,23.5403614 C394.249088,26.2129978 392.095847,28.3807051 389.439599,28.3807051 C386.783676,28.3807051 384.630434,26.2129978 384.630434,23.5403614 C384.630434,20.867399 386.783676,18.7000176 389.439599,18.7000176 Z M389.44381,18.3183055 C386.584158,18.3183055 384.265407,20.6522581 384.265407,23.5302563 C384.265407,26.4082545 386.584158,28.741881 389.44381,28.741881 C392.303462,28.741881 394.622861,26.4082545 394.622861,23.5302563 C394.622861,20.6522581 392.303462,18.3183055 389.44381,18.3183055 Z M385.353688,29.6816555 C384.603875,29.204108 382.755093,28.146006 382.508934,27.0689977 C382.508934,28.3556054 382.512821,29.6350416 382.512821,30.9193675 C382.451281,32.129046 383.560939,32.8425965 383.560939,32.8425965 C384.051313,33.2373475 384.829305,33.6829498 385.525675,34.2240618 C386.61266,35.0693046 387.04279,35.8399001 387.04279,37.1845306 L387.04279,41.9926032 L387.685394,41.9926032 L388.891896,41.9926032 L388.972869,41.9926032 L388.972869,36.7535969 C388.978699,35.1921957 388.961533,33.6770824 388.891896,32.8425965 C388.834243,32.1544717 388.536261,31.7564611 388.095443,31.4233187 C387.258179,30.7915868 386.233057,30.2413478 385.353688,29.6816555 Z M393.654744,29.6816555 C392.775375,30.2413478 391.750253,30.7915868 390.912989,31.4233187 C390.472171,31.7564611 390.174189,32.1544717 390.11686,32.8425965 C390.046899,33.6770824 390.029733,35.1921957 390.035563,36.7535969 L390.035563,41.9926032 L390.11686,41.9926032 L391.322714,41.9926032 L391.965642,41.9926032 L391.965642,37.1845306 C391.965642,35.8399001 392.395448,35.0693046 393.482757,34.2240618 C394.179127,33.6829498 394.957443,33.2373475 395.447817,32.8425965 C395.447817,32.8425965 396.557151,32.129046 396.495611,30.9193675 C396.495611,29.6350416 396.499498,28.3556054 396.499498,27.0689977 C396.253663,28.146006 394.404557,29.204108 393.654744,29.6816555 Z M375.963702,14.5865892 L383.231216,14.5865892 L388.36978,9.41473294 C388.919751,8.86188608 389.818554,8.86188608 390.368201,9.41473294 L395.506765,14.5865892 L402.774279,14.5865892 C403.550975,14.5865892 404.187101,15.2264704 404.187101,16.0088008 L404.187101,23.3226127 L409.325989,28.4941431 C409.875636,29.0473159 409.875636,29.9522115 409.325989,30.5050583 L404.187101,35.6772406 L404.187101,42.9910525 C404.187101,43.773383 403.550975,44.4132641 402.774279,44.4132641 L395.506765,44.4132641 L390.368201,49.5851204 C389.818554,50.1382932 388.919751,50.1382932 388.36978,49.5851204 L383.231216,44.4132641 L375.963702,44.4132641 C375.186683,44.4132641 374.55088,43.773383 374.55088,42.9910525 L374.55088,35.6772406 L369.411992,30.5050583 C368.862669,29.9522115 368.862669,29.0473159 369.411992,28.4941431 L374.55088,23.3226127 L374.55088,16.0088008 C374.55088,15.2264704 375.186683,14.5865892 375.963702,14.5865892 Z M429.44434,43.998839 L429.461601,44.2368421 C429.473109,44.3529412 429.478863,44.4400155 429.478863,44.4806502 C429.478863,44.5503096 429.455848,44.6489938 429.150895,44.9566563 L429.116372,44.9798762 C428.909235,45.0901703 428.76539,45.1424149 428.64456,45.1424149 C428.587021,45.1424149 428.564006,45.1424149 427.885056,44.7650929 C427.608873,44.7070433 427.384474,44.6780186 427.18309,44.6780186 C425.957527,44.6780186 424.208367,44.8115325 421.975887,45.0785604 C420.232481,45.496517 419.254332,45.7054954 419.052948,45.7403251 C419.047195,45.7403251 419.041441,45.7403251 419.035687,45.7403251 C418.94938,45.7403251 418.87458,45.7113003 418.466059,45.2236842 C418,44.7302632 418,44.6780186 418,44.6141641 C418,44.4109907 418.028769,44.2832817 418.086307,44.1845975 L418.126584,44.1149381 L418.655935,44.1149381 L418.655935,44.2600619 C418.655935,44.2716718 418.655935,44.2832817 418.655935,44.2948916 C418.886088,44.254257 419.415439,44.126548 420.094389,43.9640093 L420.514418,43.8653251 C420.8654,43.7666409 421.239398,43.6853715 421.705457,43.6157121 C421.630658,43.3893189 421.590381,43.1571207 421.590381,42.8900929 L421.596135,42.8436533 C421.642166,42.7043344 421.705457,42.2689628 421.762996,41.0150929 C421.291183,41.6710526 420.830877,42.1934985 420.370572,42.6056502 L420.330295,42.6404799 L420.278511,42.6404799 C419.846975,42.6404799 419.323378,42.4198916 419.254332,41.3866099 L419.254332,41.3517802 L419.26584,41.3227554 C419.565038,40.5681115 419.720391,39.6625387 419.720391,38.629257 L419.720391,37.8920279 L419.996574,38.5770124 C420.278511,39.2619969 420.50291,39.8134675 420.687032,40.2430341 C421.020753,39.9411765 421.37749,39.6451238 421.820534,39.3142415 C421.820534,38.9485294 421.820534,38.5479876 421.826288,38.124226 C421.832041,37.6133901 421.837795,37.0561146 421.837795,36.4698142 C421.820534,36.4117647 421.803272,36.3479102 421.791765,36.2898607 C421.486812,36.3304954 421.193368,36.37113 420.888416,36.4001548 L420.8654,36.4001548 L420.842385,36.3943498 C420.284265,36.255031 419.887252,35.7732198 419.697376,35.0127709 L419.685868,34.9663313 L419.70313,34.9256966 C419.743406,34.8328173 419.829713,34.7225232 420.031097,34.7225232 C420.123158,34.7399381 420.174942,34.751548 420.220973,34.7631579 C420.267003,34.7747678 420.30728,34.7805728 420.336049,34.7863777 C422.441946,34.118808 424.283167,33.5963622 425.802174,33.2248452 L425.836697,33.2190402 L425.87122,33.2306502 C426.412079,33.375774 426.780323,33.6137771 426.998968,33.9562693 L427.021983,33.9910991 L427.021983,34.0317337 C427.021983,34.2581269 426.964445,34.4613003 426.843615,34.6702786 L426.791831,34.7225232 L425.445438,35.5352167 C425.514484,35.6571207 425.549007,35.7790248 425.549007,35.8893189 C425.549007,36.3653251 425.520237,36.8471362 425.474207,37.3521672 C425.882728,37.1954334 426.285495,37.0619195 426.694016,36.9458204 L426.734293,36.9400155 C427.217613,36.9400155 427.591611,37.0967492 427.867794,37.4102167 C428.05767,37.6946594 428.143978,38.1358359 428.143978,38.751161 L428.143978,38.7976006 L428.115208,38.8324303 C427.361459,39.9005418 426.366048,40.6842105 425.157747,41.1602167 C425.140486,42.1586687 425.105963,42.8552632 425.042671,43.2848297 C425.26707,43.2616099 425.474207,43.2325851 425.664083,43.2093653 C426.740046,43.0468266 427.539827,42.9655573 428.040409,42.9655573 C428.190008,42.9655573 428.408653,43.0119969 428.696344,43.1164861 L428.730867,43.1339009 C429.041573,43.3486842 429.208433,43.4705882 429.283233,43.5402477 C429.352279,43.5924923 429.381048,43.6969814 429.44434,43.998839 Z M425.226793,39.871517 C425.75039,39.4361455 426.078358,38.8382353 426.18768,38.1010062 C425.894235,38.1764706 425.606545,38.2809598 425.318854,38.4144737 L425.295839,38.5712074 C425.295839,38.8208204 425.272823,39.2387771 425.226793,39.871517 Z M422.988558,41.3517802 C422.988558,42.2747678 422.959789,42.9887771 422.925266,43.4589783 C422.936774,43.4589783 422.948282,43.4589783 422.959789,43.4589783 C423.333787,43.4357585 423.68477,43.4067337 424.00123,43.3835139 L423.989722,43.371904 C423.817108,43.0352167 423.736555,42.6985294 423.736555,42.3095975 L423.736555,42.2747678 L423.753816,42.2399381 C423.891908,41.9903251 423.983969,40.9396285 424.035753,39.1110681 C423.707785,39.3432663 423.391326,39.5696594 423.092127,39.8018576 C423.069112,40.0630805 423.05185,40.3939628 423.023081,40.8003096 L422.988558,41.3517802 Z M424.070276,37.1025542 C424.07603,36.8529412 424.07603,36.5917183 424.081783,36.3188854 L423.8804,36.4001548 C423.575448,36.5220588 423.425848,36.5801084 423.339541,36.6033282 C423.345295,36.6381579 423.345295,36.6671827 423.345295,36.7020124 C423.345295,37.2070433 423.310772,37.746904 423.24748,38.3448142 C423.523663,38.1764706 423.799846,38.0313467 424.064522,37.9036378 C424.064522,37.6424149 424.064522,37.375387 424.070276,37.1025542 Z M423.20145,36.2782508 C423.276249,36.1969814 423.408587,36.0808824 423.632986,35.9009288 C423.402833,35.9647833 423.189942,36.0170279 422.988558,36.0634675 C423.074866,36.127322 423.143911,36.2027864 423.20145,36.2782508 Z M435.215417,43.0119969 C435.226925,43.2325851 435.295971,43.5750774 435.434062,44.0801084 L435.439816,44.1149381 C435.439816,44.3355263 435.399539,44.6431889 435.307478,45.1598297 C435.226925,45.7983746 435.123356,46.0247678 434.927727,46.0247678 C434.806896,46.0247678 434.69182,45.9841331 434.582498,45.9028638 C434.427145,45.8622291 434.248776,45.6358359 434.001362,44.6838235 C433.765456,44.0626935 433.644626,43.6447368 433.644626,43.4183437 C433.644626,43.1977554 433.713671,42.9249226 433.846009,42.5998452 C433.903547,42.4256966 433.932316,42.2921827 433.932316,42.1876935 L433.932316,39.9295666 C433.546811,40.2023994 433.207336,40.4055728 432.913891,40.5274768 L432.856353,40.5390867 C432.344263,40.5390867 431.912727,40.3475232 431.607775,39.9876161 C431.337345,39.621904 431.205008,39.1633127 431.205008,38.5654025 L431.205008,38.373839 L431.383376,38.4202786 C431.636544,38.4899381 431.843681,38.5247678 432.016296,38.5305728 C432.562908,38.251935 433.121028,37.9152477 433.713671,37.4914861 L433.869024,37.3986068 C433.915055,37.369582 433.955332,37.3405573 433.995608,37.3173375 C434.053147,36.5220588 434.104931,35.9125387 434.139454,35.4829721 C434.173977,35.1172601 434.191238,34.8618421 434.196992,34.7747678 C434.122192,34.6122291 433.93807,34.3916409 433.782717,34.2116873 C433.587087,33.869195 433.506534,33.6021672 433.506534,33.3583591 L433.506534,33.3119195 L433.529549,33.2770898 C433.598595,33.1784056 433.736687,33.1493808 434.17973,33.1493808 L434.220007,33.1551858 C434.703328,33.2945046 435.106095,33.5208978 435.405293,33.8227554 C435.819568,34.2291022 436.049721,34.6064241 436.101505,34.9895511 C436.101505,35.2101393 436.032459,35.3842879 435.900121,35.5178019 C435.819568,35.5874613 435.750522,35.6977554 435.692984,35.8428793 L435.658461,35.9357585 L435.618184,35.9357585 C435.595169,35.993808 435.549139,36.127322 435.491601,36.4523994 C435.52037,36.4465944 435.549139,36.4407895 435.577908,36.4407895 C436.383442,36.4407895 436.83224,36.7948916 436.924301,37.503096 C436.924301,37.7062693 436.780455,37.9094427 436.487011,38.1532508 C436.239597,38.373839 435.865599,38.6466718 435.336247,38.9891641 C435.284463,39.0181889 435.238433,39.0530186 435.20391,39.0762384 C435.134864,39.9237616 435.100341,40.8177245 435.100341,41.7291022 C435.117602,41.9090557 435.134864,42.1006192 435.152125,42.2979876 C435.175141,42.5301858 435.198156,42.7623839 435.215417,43.0119969 Z M444.013002,40.370743 C444.864567,40.7945046 445.278841,41.2182663 445.278841,41.6536378 C445.278841,41.8974458 445.14075,42.0599845 444.927859,42.0599845 C444.812782,42.0599845 444.473307,42.0193498 442.862239,41.6710526 C442.678117,41.6710526 442.482487,41.6710526 442.27535,41.6826625 C442.212058,42.501161 442.183288,43.499613 442.154519,44.5386997 C442.183288,44.7244582 442.217811,45.0727554 442.217811,45.5371517 C442.217811,45.7054954 442.171781,45.9318885 442.07972,46.1815015 C441.964643,46.4833591 441.769014,46.6517028 441.544615,46.6517028 L441.504338,46.6458978 C440.324806,46.2859907 439.231581,45.5545666 438.253432,44.4690402 L437.683804,43.8363003 L438.426047,44.2426471 C438.995674,44.5561146 439.645856,44.7128483 440.359329,44.7128483 C440.589481,44.7128483 440.773604,44.6664087 440.88868,44.5851393 C440.854157,43.8827399 440.825388,43.2209752 440.825388,42.5940402 C440.825388,42.3154025 440.81388,42.0541796 440.802373,41.8161765 C440.215483,41.880031 439.57681,41.9903251 438.903613,42.1354489 C437.263776,42.6114551 436.981839,42.7797988 436.935808,42.8262384 L436.889778,42.8900929 L436.809224,42.878483 C436.043967,42.8088235 435.618184,42.5185759 435.543385,42.0135449 L435.531877,41.9554954 L435.5664,41.9090557 C435.675723,41.7581269 436.066982,41.5549536 439.237335,41.0267028 C439.18555,40.8409443 439.156781,40.6319659 439.145274,40.3881579 C439.104997,40.3997678 439.06472,40.4113777 439.024444,40.4229876 L438.984167,40.4345975 L438.94389,40.4229876 C438.656199,40.3417183 438.420293,40.2082043 438.224663,40.0108359 L438.172879,39.9585913 L438.184386,39.8831269 C438.236171,39.5638545 438.437554,39.2794118 438.794291,39.0065789 C438.575646,38.8962848 438.403031,38.7163313 438.276447,38.4667183 C438.26494,38.501548 438.253432,38.5421827 438.241925,38.5770124 C438.241925,38.7163313 438.213155,38.9427245 438.167125,39.2736068 L438.132602,39.5638545 C438.132602,40.1791796 438.086572,40.6319659 437.99451,40.8873839 C437.879434,41.1602167 437.729835,41.2124613 437.620512,41.2124613 C437.424883,41.1660217 437.263776,41.0325077 437.0739,40.7828947 C436.918547,40.4404025 436.849501,40.126935 436.849501,39.7902477 L436.849501,39.7147833 L436.912793,39.6741486 C436.981839,39.627709 437.217745,39.3026316 437.217745,37.1489938 C437.142946,36.8993808 437.137192,36.6381579 437.137192,36.4640093 L437.137192,36.2782508 L437.309806,36.3188854 C437.442144,36.3479102 437.574482,36.4059598 437.689558,36.4756192 L437.70682,36.4640093 C437.775865,36.4117647 437.856419,36.3479102 437.94848,36.2724458 L437.988757,36.249226 C437.99451,36.249226 438.000264,36.2434211 438.006018,36.2434211 C437.58599,36.127322 437.304053,35.7732198 437.165961,35.1927245 L437.160207,35.1578947 L437.165961,35.123065 C437.183222,35.0359907 437.252268,34.9315015 437.447898,34.9315015 L437.488175,34.9373065 C437.58599,34.9663313 437.637774,34.9721362 437.666543,34.9779412 C438.172879,34.7979876 438.673461,34.629644 439.162535,34.4845201 L439.162535,33.5673375 C439.047459,33.2828947 438.857583,33.0971362 438.604415,33.0158669 L438.466323,32.9694272 L438.512354,32.8301084 C438.592907,32.5921053 438.794291,32.3076625 439.30638,32.3076625 C440.123422,32.4179567 440.589481,32.7430341 440.698804,33.2828947 L440.704558,33.3061146 L440.629758,34.0259288 C440.894434,33.9388545 441.147602,33.8633901 441.389262,33.7995356 L441.423785,33.7879257 L441.458308,33.7995356 C441.83806,33.9040248 442.12575,34.0839783 442.304119,34.3393963 L442.332888,34.380031 L442.332888,34.4264706 C442.332888,34.5890093 442.292611,34.751548 442.206304,34.9256966 L442.189042,34.9663313 L442.148766,34.9895511 C441.607907,35.2972136 441.044033,35.5468266 440.480159,35.7325851 C440.480159,35.7383901 440.480159,35.744195 440.480159,35.75 C440.836896,35.6745356 441.20514,35.6397059 441.584892,35.6397059 C441.872582,35.6397059 442.166027,35.7325851 442.505502,35.9183437 C442.810454,36.0692724 442.977315,36.2782508 442.994577,36.5336687 C442.994577,36.6671827 442.9543,36.8181115 442.885254,36.9632353 L442.764424,37.4044118 C442.695378,38.5305728 442.632086,39.2794118 442.557287,39.7960526 C442.505502,40.12113 442.447964,40.3649381 442.378918,40.5274768 C443.155683,40.4113777 443.673527,40.3533282 443.94971,40.3533282 L444.013002,40.370743 Z M439.13952,37.619195 L439.13952,37.3637771 C438.909367,37.4856811 438.70223,37.625 438.512354,37.7875387 L438.535369,37.7933437 C438.575646,37.7991486 438.610169,37.8049536 438.633184,37.8049536 C438.811552,37.7294892 438.978413,37.6714396 439.13952,37.619195 Z M438.621676,36.5162539 C438.5066,36.5684985 438.38577,36.620743 438.270694,36.6729876 L438.092325,36.748452 C438.155617,36.7890867 438.207402,36.8297214 438.253432,36.876161 C438.357001,36.7426471 438.483585,36.626548 438.621676,36.5162539 Z M441.061294,38.6815015 C441.153355,38.7163313 441.279939,38.745356 441.40077,38.7743808 L441.418031,38.7801858 C441.418031,38.6060372 441.423785,38.3912539 441.429539,38.1358359 L441.429539,38.1068111 C441.412277,38.1648607 441.377754,38.2229102 441.343231,38.2809598 L441.32597,38.3157895 L441.291447,38.3332043 C441.078556,38.4551084 440.871418,38.5712074 440.670035,38.6873065 C440.790865,38.6815015 440.900188,38.6756966 441.015264,38.6756966 L441.061294,38.6815015 Z M440.57222,37.1489938 C440.963479,37.247678 441.25117,37.4218266 441.452554,37.6656347 L441.458308,37.5205108 C441.458308,37.3405573 441.441046,37.1547988 441.412277,36.9864551 C441.412277,36.8993808 441.40077,36.8355263 441.389262,36.7832817 C441.044033,36.7890867 440.721819,36.8297214 440.422621,36.8993808 L440.405359,37.1780186 L440.531943,37.1373839 L440.57222,37.1489938 Z M440.854157,40.2952786 C441.182124,40.3010836 441.452554,40.3475232 441.665445,40.4287926 C441.527353,40.1443498 441.441046,39.7147833 441.418031,39.1575077 C441.360493,39.3084365 441.331724,39.4477554 441.331724,39.5812693 L441.331724,39.6799536 L441.239663,39.7147833 C440.951972,39.8308824 440.652773,39.9527864 440.336314,40.0572755 L440.336314,40.0804954 C440.313298,40.4229876 440.278775,40.6726006 440.226991,40.869969 L440.595235,40.8119195 C440.566466,40.7596749 440.543451,40.7306502 440.520436,40.7132353 L440.468651,40.6726006 L440.468651,40.6029412 C440.468651,40.5100619 440.508928,40.2952786 440.854157,40.2952786 Z M438.650445,43.8363003 C438.293709,43.4473684 438.098079,43.2790248 438.02328,43.2325851 C437.850665,43.2790248 437.643528,43.3660991 437.413375,43.4821981 L437.258022,43.5576625 L437.211991,43.3893189 C437.171715,43.255805 437.171715,43.1455108 437.171715,43.0758514 L437.171715,42.994582 L437.240761,42.9539474 C437.51119,42.7914087 437.804635,42.6695046 438.14411,42.5824303 C438.592907,42.4779412 438.926629,42.4315015 439.156781,42.4315015 C439.346657,42.4315015 439.553795,42.5069659 439.749424,42.6520898 C440.071638,42.872678 440.244252,43.0758514 440.301791,43.3022446 L440.313298,43.3370743 L440.301791,43.371904 C440.250006,43.5692724 440.169453,43.749226 440.054377,43.9059598 C439.881762,44.1091331 439.732163,44.2252322 439.571056,44.2658669 C439.565302,44.2658669 439.565302,44.2658669 439.559548,44.2658669 C439.30638,44.2658669 439.030197,44.126548 438.650445,43.8363003 Z M442.764424,34.3916409 C442.223565,34.2987616 441.648184,33.7879257 441.021018,32.8591331 L440.871418,32.6327399 L441.141848,32.6327399 C442.096981,32.6327399 442.804701,32.7314241 443.253498,32.9345975 L443.293775,32.9520124 L443.31679,32.9926471 C443.483651,33.2654799 443.564204,33.5325077 443.564204,33.7937307 C443.564204,33.9736842 443.489405,34.3916409 442.764424,34.3916409 Z M457.373363,40.6145511 C458.322742,41.0847523 458.783048,41.5491486 458.783048,42.0367647 C458.783048,42.373452 458.581664,42.4895511 458.397542,42.4895511 C458.230681,42.4895511 457.563239,42.3502322 456.078754,42.0309598 C455.342266,42.0309598 454.542485,42.0948142 453.725443,42.2225232 C453.702428,42.5127709 453.679413,42.8088235 453.656397,43.1164861 L453.96135,43.1164861 C454.024642,43.1164861 454.087934,43.128096 454.156979,43.1455108 C454.318086,43.0294118 454.559747,42.9713622 454.876206,42.9713622 C454.933745,42.9713622 455.07759,42.9887771 455.307743,43.0526316 C455.520634,43.0874613 455.727771,43.1571207 455.917647,43.25 C456.124785,43.2906347 456.331922,43.4183437 456.567828,43.6563467 C456.757704,43.7666409 456.797981,43.7898607 456.82675,43.8188854 C456.913057,43.9059598 457.010872,44.126548 457.079918,44.3006966 C457.154718,44.5677245 457.200748,44.7650929 457.200748,44.9218266 C457.200748,45.0727554 457.131702,45.2585139 456.987857,45.496517 L456.94758,45.5429567 C456.723181,45.6938854 456.539059,45.7635449 456.354937,45.7635449 C456.26863,45.7635449 456.170815,45.7229102 455.583926,45.1598297 C455.313496,44.9740712 455.066082,44.7592879 454.870453,44.5386997 C454.720853,44.3471362 454.600023,44.2078173 454.496455,44.1149381 C454.254794,43.8014706 454.053411,43.5576625 453.863535,43.3660991 L453.656397,43.1571207 C453.621875,43.6737616 453.587352,44.2078173 453.564336,44.7592879 C453.604613,45.0379257 453.627628,45.374613 453.627628,45.7229102 C453.627628,45.8970588 453.587352,46.1176471 453.495291,46.4543344 C453.351445,46.9071207 453.115539,47 452.942924,47 L452.902648,47 L452.868125,46.9825851 C452.217944,46.6168731 451.636808,45.9144737 451.101703,44.8463622 C450.969365,44.9682663 450.814012,45.1017802 450.658659,45.2236842 C450.014232,45.7113003 449.611465,45.9318885 449.352543,45.9318885 C448.967037,45.9318885 448.886484,45.3281734 448.886484,44.4284056 C448.886484,44.3181115 448.949776,44.126548 449.421589,43.6041022 C449.525158,43.4473684 449.622973,43.3138545 449.70928,43.2093653 C448.017658,43.8885449 447.724213,44.126548 447.678183,44.1962074 L447.632152,44.2716718 L447.545845,44.2658669 C446.682773,44.1962074 446.193698,43.8595201 446.084376,43.2732198 L446.072868,43.2151703 L446.107391,43.1629257 C446.25699,42.9365325 446.930187,42.5534056 450.733459,41.752322 C450.474537,41.7174923 450.204108,41.496904 449.95094,41.1137771 C449.749556,40.7074303 449.657495,40.3475232 449.657495,39.999226 L449.657495,39.9121517 L449.738049,39.871517 C449.789833,39.8134675 449.904909,39.4361455 449.979709,37.6482198 C449.979709,37.4392415 449.979709,37.247678 449.985463,37.0677245 C449.824356,37.2012384 449.674757,37.3115325 449.525158,37.3986068 C449.064852,37.8281734 448.777162,38.0081269 448.558517,38.0081269 L448.472209,38.0081269 L448.431933,37.9268576 C448.173011,37.4276316 448.046427,36.9226006 448.046427,36.4233746 L448.046427,36.3827399 L448.069442,36.3479102 C448.184519,36.1737616 448.299595,36.005418 448.414671,35.8544892 L448.489471,35.755805 L448.679347,35.8660991 C448.748392,35.7790248 448.823192,35.7035604 448.892238,35.6339009 C449.007314,35.5352167 449.133898,35.4075077 449.27199,35.2681889 C449.456112,35.0708204 449.657495,34.9024768 449.847371,34.7399381 L449.904909,34.6528638 C450.066016,34.4380805 450.204108,34.246517 450.347953,34.1013932 C450.532075,33.9330495 450.698936,33.7240712 450.837028,33.4860681 L450.871551,33.4454334 C451.015396,33.3235294 451.101703,33.1609907 451.136226,32.9462074 C451.072934,32.7662539 451.061426,32.5514706 451.061426,32.3599071 L451.06718,32.3134675 C451.090196,32.243808 451.14198,32.1625387 451.228287,32.0754644 L451.303087,32 L451.395148,32.0464396 C451.550501,32.127709 451.677085,32.255418 451.792161,32.3889319 C451.89573,32.4934211 451.964776,32.6153251 452.033821,32.7372291 C452.235205,33.004257 452.407819,33.2190402 452.580434,33.4280186 L452.609203,33.4802632 C452.666741,33.6718266 452.69551,33.8633901 452.69551,34.0549536 L452.69551,34.1013932 L452.666741,34.1420279 C452.643726,34.1768576 452.597695,34.2291022 452.52865,34.3103715 C452.459604,34.3916409 452.373297,34.49613 452.263974,34.629644 C452.286989,34.629644 452.304251,34.6354489 452.321512,34.6354489 C452.586188,34.5309598 452.845109,34.4380805 453.092524,34.3452012 C453.058001,34.3510062 453.023478,34.3626161 452.988955,34.3684211 L452.494127,34.4845201 L452.850863,34.124613 C453.196092,33.7763158 453.460768,33.4744582 453.633382,33.2422601 C453.299661,32.9868421 453.1328,32.6559598 453.1328,32.249613 L453.1328,32.1044892 L453.276646,32.1044892 C453.76572,32.1044892 454.220271,32.1741486 454.617285,32.3076625 L454.628792,32.3134675 C455.071836,32.499226 455.342266,32.7604489 455.445834,33.1145511 L455.451588,33.1551858 C455.451588,33.3467492 455.382542,33.5731424 455.146636,33.7414861 C455.503372,33.8575851 455.762294,34.0317337 455.934909,34.2871517 L455.957924,34.3219814 L455.957924,34.3684211 C455.957924,34.5309598 455.911893,34.6818885 455.808325,34.8502322 L455.773802,34.8850619 L455.612695,35.0127709 C455.399804,35.1811146 455.19842,35.3494582 454.991283,35.5178019 C455.399804,35.6164861 455.675987,35.7964396 455.854355,36.0634675 L455.87737,36.0982972 L455.87737,36.1447368 C455.87737,36.3479102 455.814078,36.504644 455.750787,36.6323529 L455.704756,36.6845975 C455.566664,36.7832817 455.428573,36.876161 455.290481,36.9690402 C455.163897,37.0561146 455.037313,37.1431889 454.916483,37.2302632 C455.284727,37.3405573 455.572418,37.5379257 455.75654,37.8107585 L455.779556,37.8455882 L455.779556,37.8920279 C455.779556,38.1184211 455.71051,38.3099845 455.652972,38.4260836 L455.606941,38.4783282 L455.146636,38.8092105 C454.997037,38.9195046 454.853191,39.0239938 454.7151,39.122678 C454.974021,39.0704334 455.204174,39.0414087 455.376788,39.0414087 C455.46885,39.0414087 455.641464,39.0646285 455.911893,39.1807276 C456.142046,39.3432663 456.303153,39.4593653 456.377952,39.5290248 C456.452752,39.5754644 456.481521,39.6973684 456.521798,39.9237616 L456.539059,40.1153251 C456.550567,40.2023994 456.556321,40.2662539 456.556321,40.3068885 C456.556321,40.3997678 456.498783,40.4926471 456.291645,40.7016254 C456.757704,40.6319659 457.097179,40.5971362 457.310071,40.5971362 L457.373363,40.6145511 Z M453.322676,40.8583591 C453.489537,40.9338235 453.616121,41.0383127 453.69092,41.1718266 C454.450424,41.0208978 455.100605,40.9047988 455.63571,40.8119195 C455.560911,40.7712848 455.457342,40.7074303 455.301989,40.620356 L455.238697,40.5797214 C455.054575,40.5390867 454.870453,40.5216718 454.680577,40.5216718 C454.387132,40.5216718 453.984365,40.5971362 453.52406,40.7364551 C453.44926,40.7828947 453.385968,40.8235294 453.322676,40.8583591 Z M451.429671,39.0820433 C451.285825,41.0150929 451.118965,41.5665635 450.940596,41.7116873 C451.326102,41.630418 451.751884,41.5433437 452.206436,41.4562693 C452.160405,41.2647059 452.102867,41.1428019 452.033821,41.0847523 L451.982037,41.0441176 L451.982037,40.9744582 C451.982037,40.8525542 452.028068,40.7132353 452.206436,40.6667957 C452.189174,40.6493808 452.166159,40.626161 452.148898,40.6029412 C451.723115,40.126935 451.7001,40.0630805 451.688592,40.0224458 L451.682839,39.9760062 C451.682839,39.7902477 451.7001,39.6451238 451.792161,39.5290248 L451.838192,39.4767802 L452.356035,39.4767802 L452.356035,39.621904 C452.442342,39.5986842 452.57468,39.5580495 452.724279,39.5174149 L452.862371,39.4767802 C452.994709,39.4071207 453.161569,39.3548762 453.339938,39.3316563 L453.408983,39.244582 C453.334184,39.256192 453.270892,39.2619969 453.213354,39.2736068 L453.184585,39.2794118 L453.155816,39.2736068 C452.672495,39.1633127 452.338774,38.7685759 452.166159,38.1010062 L452.154652,38.0487616 L452.177667,38.002322 C452.25822,37.8397833 452.407819,37.8397833 452.482619,37.8397833 C452.620711,37.868808 452.701264,37.880418 452.735787,37.8862229 L453.25363,37.6946594 L453.380214,37.5669505 L453.380214,37.503096 C453.357199,37.5089009 453.32843,37.5089009 453.305415,37.5147059 C453.2076,37.5321207 453.109785,37.5437307 453.023478,37.5611455 L452.994709,37.5669505 L452.96594,37.5611455 C452.52865,37.4508514 452.235205,37.0909443 452.09136,36.498839 L452.079852,36.4582043 L452.09136,36.4175697 C452.131636,36.3072755 452.223697,36.255031 452.373297,36.255031 L452.494127,36.2724458 C452.534403,36.2782508 452.568926,36.2840557 452.591942,36.2840557 C452.873879,36.1679567 453.127046,36.0808824 453.32843,36.0170279 L453.316922,35.8428793 C453.155816,35.871904 452.994709,35.8951238 452.845109,35.9183437 L452.735787,35.9357585 L452.707018,35.9299536 C452.286989,35.8312693 451.993545,35.5178019 451.826684,35.0127709 C451.757638,35.0766254 451.694346,35.1404799 451.631054,35.2043344 C451.446932,35.4655573 451.239795,35.7035604 451.072934,35.8893189 C451.18801,36.2840557 451.234041,36.5162539 451.234041,36.6729876 L451.222533,36.7310372 C451.107457,36.9922601 451.026904,37.4392415 450.980873,38.0893963 C450.969365,38.2403251 450.963612,38.379644 450.957858,38.5131579 C451.009642,38.3448142 451.072934,38.1358359 451.147734,37.8630031 C451.423917,37.3289474 451.659823,36.9051858 451.82093,36.6323529 L452.079852,36.7600619 C451.878468,37.2708978 451.65407,38.0719814 451.429671,39.0820433 Z M452.315758,42.4721362 C451.792161,42.5766254 451.14198,42.7159443 450.468783,42.9075077 C450.393984,42.9365325 450.319184,42.9655573 450.244385,42.994582 L450.238631,43.0526316 C450.204108,43.4415635 450.163831,43.7434211 450.106293,43.9756192 C450.785243,43.7318111 451.435425,43.3835139 452.033821,42.9539474 L452.327266,42.744969 C452.327266,42.6811146 452.321512,42.6172601 452.321512,42.5534056 C452.315758,42.5243808 452.315758,42.501161 452.315758,42.4721362 Z M452.25822,43.122291 C452.09136,43.6157121 451.803669,44.1033282 451.389394,44.5619195 C451.613793,44.7128483 451.849699,44.7883127 452.102867,44.7883127 C452.194928,44.7883127 452.246713,44.7128483 452.281235,44.6431889 L452.327266,42.9075077 L452.25822,43.122291 Z M469.456376,33.1784056 C471.13649,33.2654799 472.022578,34.118808 471.999563,35.6455108 C471.913256,37.9791022 471.872979,40.8989938 471.872979,45.1366099 C471.694611,45.8854489 471.263074,46.2801858 470.589878,46.3498452 C470.09505,46.3498452 469.548437,45.7925697 468.869487,44.5909443 C468.380413,44.6780186 467.828046,44.7650929 467.212388,44.8463622 C465.440213,45.0959752 464.444802,45.2004644 463.892436,45.2004644 C463.748591,45.1946594 463.622007,45.1772446 463.518438,45.1540248 C463.518438,45.2178793 463.524192,45.2759288 463.524192,45.3339783 L463.524192,45.4791022 L463.236501,45.4791022 C462.689889,45.4791022 462.258352,45.003096 461.947646,44.0684985 C461.809555,43.7898607 461.752017,42.6404799 461.729001,41.7291022 C461.729001,40.8467492 461.775032,40.0108359 461.872847,39.1575077 L462.143276,37.0561146 C462.206568,36.8413313 462.367675,36.4349845 462.603581,35.8835139 L462.643858,35.7964396 L462.977579,35.7964396 L463.017856,35.8602941 C463.248009,36.2143963 463.363085,36.748452 463.363085,37.4566563 C463.207732,39.0356037 463.092656,40.6784056 463.029364,42.3618421 C463.029364,42.5650155 463.075394,42.994582 463.294039,43.8479102 C463.714068,43.8072755 464.398772,43.6969814 465.325136,43.5228328 C465.969564,43.3893189 466.579468,43.2906347 467.160604,43.2209752 C466.389592,42.872678 465.681873,42.2051084 465.054707,41.2414861 L465.002923,41.1602167 C464.749755,41.2937307 464.508094,41.3866099 464.277942,41.4330495 C464.272188,41.4330495 464.272188,41.4330495 464.266434,41.4330495 C463.662283,41.4330495 463.575976,41.1834365 463.575976,41.0325077 L463.575976,40.9454334 L463.65653,40.9047988 C464.191635,40.626161 464.755508,40.1733746 465.33089,39.5580495 C465.624335,39.2736068 465.883256,39.0181889 466.078886,38.8034056 C465.348152,39.0704334 465.221568,39.1052632 465.164029,39.1052632 C464.887846,39.1052632 464.565633,38.9775542 464.157112,38.7105263 C463.852159,38.3854489 463.708314,38.0893963 463.708314,37.8107585 L463.708314,37.6656347 L463.852159,37.6656347 C464.289449,37.6656347 464.916615,37.5553406 465.900518,37.3115325 L466.752083,37.0096749 C466.752083,36.9284056 466.746329,36.8471362 466.746329,36.7716718 C466.746329,36.6671827 466.740575,36.5626935 466.740575,36.4698142 C466.683037,36.0518576 466.590976,35.7848297 466.475899,35.6919505 L466.424115,35.6455108 L466.424115,35.5758514 C466.424115,35.500387 466.452884,35.2391641 466.809621,35.2391641 C467.695708,35.2914087 468.190537,35.5526316 468.340136,36.0344427 L468.351643,36.0692724 L468.34589,36.1041022 C468.328628,36.2085913 468.317121,36.3188854 468.305613,36.4291796 C468.305613,36.4698142 468.299859,36.5104489 468.294105,36.5510836 C469.128409,36.5568885 469.721052,36.7716718 470.066281,37.1838235 L470.100804,37.2302632 L470.09505,37.2883127 C470.072034,37.6482198 469.594468,37.8223684 468.58755,37.8455882 L468.213552,37.996517 C468.305613,38.0893963 468.351643,38.1938854 468.351643,38.3041796 C468.351643,38.4086687 468.282598,38.5421827 468.121491,38.745356 C468.07546,39.3490712 468.02943,40.0630805 467.994907,40.8293344 C468.035184,41.2240712 468.058199,41.6826625 468.058199,42.1818885 C468.058199,42.3502322 468.012168,42.5534056 467.920107,42.8146285 C467.845308,42.9771672 467.759,43.0990712 467.655432,43.1745356 C468.000661,43.1455108 468.334382,43.128096 468.650842,43.122291 C469.059363,43.122291 469.559945,43.2964396 469.669267,44.126548 C469.784344,44.1555728 469.893666,44.1671827 470.002989,44.1729876 C470.135326,43.9349845 470.33671,42.495356 470.33671,35.9473684 C470.33671,35.1636997 470.026004,34.6876935 469.38733,34.5077399 C467.057035,34.5077399 465.13526,34.9256966 463.679545,35.75 L463.380346,35.9183437 L463.472408,35.5816563 C463.909698,33.9794892 465.865995,33.1958204 469.456376,33.1784056 Z M465.653104,40.748065 C465.515012,40.8525542 465.382674,40.9454334 465.25609,41.0267028 L465.279106,41.0441176 C465.612827,41.2705108 466.004087,41.3924149 466.418361,41.3924149 C466.533438,41.3924149 466.619745,41.3517802 466.677283,41.2763158 C466.700298,40.8177245 466.71756,40.3881579 466.729067,39.9760062 C466.378085,40.2198142 466.015594,40.4752322 465.653104,40.748065 Z" id="形状结合"></path>
        </g>
    </g>
</svg>